HIERARCHY
ROOT Hips
{
  OFFSET -2.9740628571428576 95.22824285714285 -3.405862857142857
  CHANNELS 6 Xposition Yposition Zposition Zrotation Xrotation Yrotation
  JOINT LeftUpLeg
  {
    OFFSET 8.64259 1.9539799999999998 -2.3883499999999995
    CHANNELS 3 Zrotation Xrotation Yrotation
    JOINT LeftLeg
    {
      OFFSET 43.770199999999996 0.0 0.0
      CHANNELS 3 Zrotation Xrotation Yrotation
      JOINT LeftFoot
      {
        OFFSET 40.62380000000001 0.0 0.0
        CHANNELS 3 Zrotation Xrotation Yrotation
        JOINT LeftToeBase
        {
          OFFSET 12.724199999999998 0.0 0.0
          CHANNELS 3 Zrotation Xrotation Yrotation
          End Site
          {
            OFFSET 0.0 0.0 0.0
          }
        }
      }
    }
  }
  JOINT RightUpLeg
  {
    OFFSET -8.2249 1.9539799999999998 -2.59336
    CHANNELS 3 Zrotation Xrotation Yrotation
    JOINT RightLeg
    {
      OFFSET 43.56529999999999 0.0 0.0
      CHANNELS 3 Zrotation Xrotation Yrotation
      JOINT RightFoot
      {
        OFFSET 40.62380000000001 0.0 0.0
        CHANNELS 3 Zrotation Xrotation Yrotation
        JOINT RightToeBase
        {
          OFFSET 12.724199999999998 0.0 0.0
          CHANNELS 3 Zrotation Xrotation Yrotation
          End Site
          {
            OFFSET 0.0 0.0 0.0
          }
        }
      }
    }
  }
  JOINT Spine
  {
    OFFSET 0.16583 0.8771399999999999 6.61349
    CHANNELS 3 Zrotation Xrotation Yrotation
    JOINT Spine1
    {
      OFFSET 7.389628571428571 2e-05 0.0
      CHANNELS 3 Zrotation Xrotation Yrotation
      JOINT Spine2
      {
        OFFSET 11.944500000000001 1e-05 0.0
        CHANNELS 3 Zrotation Xrotation Yrotation
        JOINT Spine3
        {
          OFFSET 14.725400000000004 4e-05 0.0
          CHANNELS 3 Zrotation Xrotation Yrotation
          JOINT Spine4
          {
            OFFSET 10.9679 0.0 0.0
            CHANNELS 3 Zrotation Xrotation Yrotation
            JOINT RightShoulder
            {
              OFFSET 2.46616 -1.6653 3.69651
              CHANNELS 3 Zrotation Xrotation Yrotation
              JOINT RightArm
              {
                OFFSET 13.001199999999999 0.0 0.0
                CHANNELS 3 Zrotation Xrotation Yrotation
                JOINT RightForeArm
                {
                  OFFSET 28.784799999999997 2e-05 0.0
                  CHANNELS 3 Zrotation Xrotation Yrotation
                  JOINT RightHand
                  {
                    OFFSET 26.568800000000003 2e-05 0.0
                    CHANNELS 3 Zrotation Xrotation Yrotation
                    JOINT RightHandMiddle1
                    {
                      OFFSET 8.03675 -0.8865800000000001 0.7278700000000001
                      CHANNELS 3 Zrotation Xrotation Yrotation
                      JOINT RightHandMiddle2
                      {
                        OFFSET 2.7883299999999993 0.0 0.0
                        CHANNELS 3 Zrotation Xrotation Yrotation
                        JOINT RightHandMiddle3
                        {
                          OFFSET 2.4115500000000005 0.0 0.0
                          CHANNELS 3 Zrotation Xrotation Yrotation
                          End Site
                          {
                            OFFSET 0.0 0.0 0.0
                          }
                        }
                      }
                    }
                    JOINT RightHandRing1
                    {
                      OFFSET 7.979660000000002 -0.8867700000000002 -1.00486
                      CHANNELS 3 Zrotation Xrotation Yrotation
                      JOINT RightHandRing2
                      {
                        OFFSET 2.8636799999999996 0.0 0.0
                        CHANNELS 3 Zrotation Xrotation Yrotation
                        JOINT RightHandRing3
                        {
                          OFFSET 2.11079 0.0 0.0
                          CHANNELS 3 Zrotation Xrotation Yrotation
                          End Site
                          {
                            OFFSET 0.0 0.0 0.0
                          }
                        }
                      }
                    }
                    JOINT RightHandPinky1
                    {
                      OFFSET 8.03707 -0.8875299999999999 -2.6069600000000004
                      CHANNELS 3 Zrotation Xrotation Yrotation
                      JOINT RightHandPinky2
                      {
                        OFFSET 1.8462757142857142 0.0 0.0
                        CHANNELS 3 Zrotation Xrotation Yrotation
                        JOINT RightHandPinky3
                        {
                          OFFSET 1.8843400000000001 0.0 0.0
                          CHANNELS 3 Zrotation Xrotation Yrotation
                          End Site
                          {
                            OFFSET 0.0 0.0 0.0
                          }
                        }
                      }
                    }
                    JOINT RightHandIndex1
                    {
                      OFFSET 7.92262 -0.8855000000000002 2.31175
                      CHANNELS 3 Zrotation Xrotation Yrotation
                      JOINT RightHandIndex2
                      {
                        OFFSET 2.63761 0.0 0.0
                        CHANNELS 3 Zrotation Xrotation Yrotation
                        JOINT RightHandIndex3
                        {
                          OFFSET 2.16656 0.0 0.0
                          CHANNELS 3 Zrotation Xrotation Yrotation
                          End Site
                          {
                            OFFSET 0.0 0.0 0.0
                          }
                        }
                      }
                    }
                    JOINT RightHandThumb1
                    {
                      OFFSET 3.4769 0.059800000000000006 2.8878899999999996
                      CHANNELS 3 Zrotation Xrotation Yrotation
                      JOINT RightHandThumb2
                      {
                        OFFSET 2.7768599999999997 0.00010000000000000002 -2e-05
                        CHANNELS 3 Zrotation Xrotation Yrotation
                        JOINT RightHandThumb3
                        {
                          OFFSET 2.420578571428571 -9e-05 0.0
                          CHANNELS 3 Zrotation Xrotation Yrotation
                          End Site
                          {
                            OFFSET 0.0 0.0 0.0
                          }
                        }
                      }
                    }
                  }
                }
              }
            }
            JOINT LeftShoulder
            {
              OFFSET 2.3803400000000003 -1.29275 -3.7523014285714282
              CHANNELS 3 Zrotation Xrotation Yrotation
              JOINT LeftArm
              {
                OFFSET 16.3182 5.9999999999999995e-05 0.0
                CHANNELS 3 Zrotation Xrotation Yrotation
                JOINT LeftForeArm
                {
                  OFFSET 27.090100000000003 0.0 0.0
                  CHANNELS 3 Zrotation Xrotation Yrotation
                  JOINT LeftHand
                  {
                    OFFSET 24.545099999999998 2e-05 0.0
                    CHANNELS 3 Zrotation Xrotation Yrotation
                    JOINT LeftHandMiddle1
                    {
                      OFFSET 9.218019999999997 0.66582 0.5455300000000002
                      CHANNELS 3 Zrotation Xrotation Yrotation
                      JOINT LeftHandMiddle2
                      {
                        OFFSET 2.66255 0.0 0.0
                        CHANNELS 3 Zrotation Xrotation Yrotation
                        JOINT LeftHandMiddle3
                        {
                          OFFSET 2.2804 0.0 0.0
                          CHANNELS 3 Zrotation Xrotation Yrotation
                          End Site
                          {
                            OFFSET 0.0 0.0 0.0
                          }
                        }
                      }
                    }
                    JOINT LeftHandRing1
                    {
                      OFFSET 9.247749999999998 0.66519 -1.1266999999999998
                      CHANNELS 3 Zrotation Xrotation Yrotation
                      JOINT LeftHandRing2
                      {
                        OFFSET 2.4704099999999998 0.0 -2e-05
                        CHANNELS 3 Zrotation Xrotation Yrotation
                        JOINT LeftHandRing3
                        {
                          OFFSET 2.2054000000000005 0.0 0.0
                          CHANNELS 3 Zrotation Xrotation Yrotation
                          End Site
                          {
                            OFFSET 0.0 0.0 0.0
                          }
                        }
                      }
                    }
                    JOINT LeftHandPinky1
                    {
                      OFFSET 9.35383857142857 0.66301 -2.7233200000000006
                      CHANNELS 3 Zrotation Xrotation Yrotation
                      JOINT LeftHandPinky2
                      {
                        OFFSET 1.63407 0.0 0.0
                        CHANNELS 3 Zrotation Xrotation Yrotation
                        JOINT LeftHandPinky3
                        {
                          OFFSET 1.71176 0.0 0.0
                          CHANNELS 3 Zrotation Xrotation Yrotation
                          End Site
                          {
                            OFFSET 0.0 0.0 0.0
                          }
                        }
                      }
                    }
                    JOINT LeftHandIndex1
                    {
                      OFFSET 8.731608571428572 0.6758999999999998 2.0680099999999997
                      CHANNELS 3 Zrotation Xrotation Yrotation
                      JOINT LeftHandIndex2
                      {
                        OFFSET 2.6668899999999995 0.0 0.0
                        CHANNELS 3 Zrotation Xrotation Yrotation
                        JOINT LeftHandIndex3
                        {
                          OFFSET 2.12946 0.0 2e-05
                          CHANNELS 3 Zrotation Xrotation Yrotation
                          End Site
                          {
                            OFFSET 0.0 0.0 0.0
                          }
                        }
                      }
                    }
                    JOINT LeftHandThumb1
                    {
                      OFFSET 4.967354285714285 -0.62265 3.3958599999999994
                      CHANNELS 3 Zrotation Xrotation Yrotation
                      JOINT LeftHandThumb2
                      {
                        OFFSET 2.15386 2e-05 0.0
                        CHANNELS 3 Zrotation Xrotation Yrotation
                        JOINT LeftHandThumb3
                        {
                          OFFSET 2.1951099999999997 -2.9999999999999997e-05 2e-05
                          CHANNELS 3 Zrotation Xrotation Yrotation
                          End Site
                          {
                            OFFSET 0.0 0.0 0.0
                          }
                        }
                      }
                    }
                  }
                }
              }
            }
            JOINT Neck
            {
              OFFSET 5.0226 -0.026629999999999994 0.0
              CHANNELS 3 Zrotation Xrotation Yrotation
              JOINT Head
              {
                OFFSET 6.693637142857143 2.9999999999999997e-05 0.0
                CHANNELS 3 Zrotation Xrotation Yrotation
                End Site
                {
                  OFFSET 0.0 0.0 0.0
                }
              }
            }
          }
        }
      }
    }
  }
}
MOTION
Frames: 4
Frame Time: 0.03333333
73.22711193712664 42.855753519096055 29.438833076630402 70.72930237718217 -95.88213381912189 128.89667174837416 -120.23345778283735 53.824492049782705 73.65549144848184 -18.688872374233593 59.84200296428823 -10.978425237125842 -76.8920917239758 -7.731167056075412 -16.262434666140432 28.780800000000422 5.407178851525594e-06 5.789325252727071e-06 21.16807753383925 80.75251314478999 -2.702962525789914 -90.05458515795611 19.91425404971681 7.8372394250530055 108.74933664372443 -24.466895784015218 -7.918006202128854 28.78079873545715 1.4206352872704409e-05 2.015444336381717e-05 0.9383407747320857 8.78498212370274 -97.63342091114362 9.46081014855972 0.3084772824488509 -16.033678151086107 -2.223808363202414 -0.4384542088077782 -16.00578468305899 -24.65011426932033 4.933651921946341 -15.264090218532505 -4.498569093447567 4.971745757829666 -15.204735073526901 90.60012481234479 26.16799209300789 -146.18579243111986 -4.222018852868299 44.376131068958905 -5.639939435018032 12.40941144170056 98.6300979682495 -6.8037719605303195 34.608047454809274 -4.344707648457483 2.543061488490679 -89.40428719813906 88.97090000000532 89.09407993411934 -0.06048475419197355 5.292352245383354e-07 3.0237413753097017e-07 -0.06392501297443919 -9.566955104320122e-06 3.85636680680687e-07 -89.39438942278915 88.98099955360762 89.08408849285769 -1.1574200330524098 3.6697920530997604e-06 -1.683433788845978e-06 2.5759999810649354 -6.4617231886334055e-06 8.272620942149366e-07 -88.85718956477126 89.35790000000966 88.5469925798227 -1.1457800944706027 -9.95088834575809e-06 3.4263443845712523e-06 1.145770191568259 9.888322128561775e-06 -1.0711746923351687e-06 -89.42206971354979 88.94869999998832 89.11187316041958 0.4092888000386469 1.1336047020987127e-05 0.0007492564969499248 -0.6365990871458057 -4.1550339019080745e-06 -9.294777733963676e-07 104.36400019217697 40.502292956464444 -88.824597593411 -7.669031975718249 0.18616653951380202 -1.3504409231246246 -11.263400000001763 -2.97448185616114e-06 6.619279301340244e-05 -125.83022500564675 -16.717790171081646 62.14147045336888 -45.433266595796795 -31.17237119385944 -89.04165156669733 -19.086530837172738 -19.76729605452101 26.076951029722977 72.58777744946792 15.849668004028869 19.6639876181466 -91.18749417384083 -87.8289000000056 -89.99899536638937 3.408879961758888 4.3542000611154394e-06 0.0032606708558697893 -0.9548648983401037 -5.598864026510095e-06 4.162492056056091e-06 -91.18777249183795 -89.40149999999224 -89.99925697061299 2.856370740406109 6.810610409740784e-06 0.002874557853670958 -3.1684400757328453 3.7850422260584074e-06 2.175316857989291e-07 88.80681418631598 -89.7170076893999 89.99542463100752 2.5448100899687236 -1.1790415375187294e-05 0.003004412277153288 -2.5448196911576884 7.405308355111239e-06 1.2938968447407036e-06 -91.18819212726093 -86.19730000000837 -89.99969086214853 6.131040162550882 -9.855827312373329e-06 0.006841295401514106 -2.045431154255163 -6.097572725310035e-06 -4.670818997939399e-08 -101.94900000000177 -40.72420000000386 -90.069400000011 10.01720000000016 2.7077217850061665e-05 5.385715143611782e-06 -2.669759396644053 -5.4231905367302495e-06 -4.652173243971032e-06 -56.00092583430256 -2.9630779403501464 76.28662919071212 7.980290004753584 1.260492418132514 -36.56458910195828
73.22956680078401 42.85527373542098 29.439354975284175 70.73218057074803 -95.88082075251445 128.90053220430306 -120.23336552830459 53.82492797565649 73.65580448368257 -18.69037794743518 59.84138072582137 -10.978194450092971 -76.88848079598722 -7.731872233633791 -16.263487766028117 28.780800000000422 5.407187270809119e-06 5.789338325722103e-06 21.174364697431464 80.753746862832 -2.7079962373397137 -90.05524452996185 19.916103498819517 7.837667722031248 108.74987250399597 -24.466821967040737 -7.918142351545834 28.780798735385773 1.4206381395804815e-05 2.0154478389790852e-05 0.9381929727362182 8.784918155732091 -97.63329701961504 9.460941388367143 0.30837971003547293 -16.03354840670927 -2.2236703360853536 -0.43854103699296443 -16.005653535738308 -24.650000182999015 4.933532651424401 -15.263997715034405 -4.498457509026878 4.9716203708660345 -15.204650498862653 90.5993974348826 26.16723697293333 -146.1881437158441 -4.221342880006613 44.374810801585944 -5.642763679661517 12.410462946163383 98.62882403349884 -6.805836479851656 34.60995654136741 -4.345439839655633 2.542235516245773 -89.40428719984543 88.97090000000532 89.09407993573993 -0.060484754180162574 5.292250001482109e-07 3.023855914008687e-07 -0.06392501298128668 -9.566988338627522e-06 3.856506596027787e-07 -89.39438942289766 88.98099955352428 89.0840884924955 -1.1574200330485602 3.669768372191757e-06 -1.683449194292122e-06 2.575999981065032 -6.4617473623799205e-06 8.272656881681711e-07 -88.85718956597965 89.35790000000966 88.54699258155361 -1.145780094461678 -9.950949129856152e-06 3.426339212615615e-06 1.1457701915539888 9.888351061775481e-06 -1.0711900049483827e-06 -89.42206971007359 88.94869999998832 89.11187315728904 0.40928880005752366 1.1336063738010832e-05 0.000749256305620182 -0.6365990871496473 -4.154977064150637e-06 -9.294791231951014e-07 104.36400019216947 40.50229295596858 -88.82459759342167 -7.669031975728742 0.18616653947443423 -1.3504409232136134 -11.263400000001763 -2.974541210185647e-06 6.619280707547404e-05 -125.83023854084024 -16.717449215406944 62.14120564445999 -45.432679447367875 -31.171897831999942 -89.04076538042847 -19.084894892573196 -19.766237418461017 26.07550902283468 72.5882625592472 15.849596792143933 19.662225180121986 -91.1874941732691 -87.8289000000056 -89.99899536583804 3.4088799617683314 4.3541729328603265e-06 0.003260670984027582 -0.9548648982945851 -5.598895790258789e-06 4.162420432249206e-06 -91.18777248724834 -89.40149999999224 -89.99925696659677 2.8563707404102026 6.8105434975662305e-06 0.002874557953031396 -3.1684400757167928 3.7851070807150405e-06 2.1752645544705567e-07 88.80681417136059 -89.71700768947744 89.99542461652152 2.5448100899772625 -1.1790512665456844e-05 0.003004414865841124 -2.54481969117429 7.405327598768464e-06 1.2939005491393397e-06 -91.1881921271025 -86.19730000000837 -89.99969086205144 6.1310401625042275 -9.855809434055138e-06 0.00684129687087206 -2.045431154392271 -6.097611847452576e-06 -4.672757794832421e-08 -101.94900000000177 -40.72420000000386 -90.069400000011 10.01720000000016 2.7077217850061665e-05 5.385721703673532e-06 -2.6697593966124114 -5.423205366797902e-06 -4.652176177337013e-06 -56.002482317301656 -2.9625787603630025 76.28612353082266 7.9813813110422664 1.2613882281141167 -36.5652179873348
73.23203435107527 42.85480504501007 29.43976836035647 70.73505876431389 -95.8797487319509 128.90415970168453 -120.23308056430338 53.82544716827023 73.65607859222624 -18.69167607027842 59.8407937083998 -10.978001609176019 -76.88492829725413 -7.732556650979149 -16.264533397122275 28.780800000000422 5.407195442547555e-06 5.789344791934699e-06 21.1800270957492 80.75508589826785 -2.712638727784608 -90.05601828282573 19.91783372723626 7.8381121811596115 108.75029312549944 -24.466611872574905 -7.918237024981481 28.78079873532322 1.4206409039338248e-05 2.0154509594749225e-05 0.9380503126306584 8.784854187761443 -97.63318644353113 9.461072878632216 0.30828060378151745 -16.033424365381958 -2.2235334362314996 -0.43862937138136293 -16.005526711955667 -24.649885596299097 4.93341223407052 -15.263911818929024 -4.49834604970083 4.971494983902405 -15.204569888635792 90.59865945662781 26.166365290699623 -146.19050596226867 -4.220829316209102 44.373465889222025 -5.645253274131804 12.411484139584726 98.62746393890997 -6.807889117047409 34.61190632550721 -4.346249321536341 2.541317769306989 -89.40428720176592 88.97090000000532 89.09407993767498 -0.0604847541675642 5.292163249081052e-07 3.024057863820058e-07 -0.06392501298685029 -9.567019931734558e-06 3.856641911993633e-07 -89.39438942336788 88.98099955347072 89.08408849213329 -1.1574200330445679 3.6697405565220386e-06 -1.6834630472514453e-06 2.575999981065902 -6.461772349665981e-06 8.272685633307587e-07 -88.8571895673773 89.35790000000966 88.54699258343328 -1.1457800944519105 -9.951009190334e-06 3.426416791950092e-06 1.1457701915390703 9.888384249873555e-06 -1.0712065726938273e-06 -89.42206970651748 88.94869999998832 89.11187315408486 0.4092888000780945 1.133608045503454e-05 0.0007492559965490589 -0.6365990871550257 -4.154922357809102e-06 -9.294801355441517e-07 104.36400019216289 40.502292955462956 -88.82459759344272 -7.669031975750461 0.18616653943442107 -1.3504409233085721 -11.263400000001763 -2.974603546341046e-06 6.619281988758373e-05 -125.83023854084024 -16.717025099811583 62.14096879674022 -45.43215101378185 -31.171482806989324 -89.04012314431228 -19.08348920395568 -19.765352464879612 26.074135093524802 72.58858441092767 15.849566272764674 19.660803213079404 -91.18749417279946 -87.8289000000056 -89.99899536545009 3.4088799617777386 4.354145120699623e-06 0.0032606711304936304 -0.9548648982504185 -5.598928412487178e-06 4.162348808442321e-06 -91.18777248279574 -89.40149999999224 -89.99925696271671 2.8563707404122494 6.810477432381231e-06 0.0028745579778715054 -3.168440075700544 3.7851634522731272e-06 2.1752027653534322e-07 88.80681415656262 -89.7170076895993 89.9954246025079 2.5448100899854458 -1.1790603469708423e-05 0.00300441742987479 -2.5448196911916194 7.405339441019065e-06 1.2939043693004338e-06 -91.18819212687012 -86.19730000000837 -89.99969086187885 6.131040162457274 -9.855797056757931e-06 0.006841298415581705 -2.045431154523967 -6.097652036562642e-06 -4.6706214135426596e-08 -101.94900000000177 -40.72420000000386 -90.069400000011 10.01720000000016 2.707720799182835e-05 5.385727033723705e-06 -2.6697593965824007 -5.423218078284461e-06 -4.652179110702992e-06 -56.00395428538677 -2.9621232639261352 76.28553452040194 7.982304911019327 1.2622439311322 -36.565818751820494
73.23447652809877 42.854377954339775 29.4400861501308 70.7378594481787 -95.87892410074816 128.9074876809336 -120.23248808519298 53.82603003544979 73.65633810327348 -18.692776536557048 59.840224301500875 -10.977837383362871 -76.8815160287342 -7.733208923478542 -16.265567825026135 28.780800000000422 5.407202976169763e-06 5.789345354214056e-06 21.18493878796637 80.75646505461563 -2.716805232551863 -90.05689968826198 19.91942180791205 7.8385600074025845 108.75057546048122 -24.466276857075336 -7.918296533998175 28.780798735271194 1.4206435394934327e-05 2.0154536341856402e-05 0.937914818350953 8.784791279688942 -97.63309265648614 9.461201613863162 0.3081827514702239 -16.033304601341797 -2.223401045430472 -0.4387168197678719 -16.005411417607814 -24.649773261302887 4.93329487493515 -15.263832530216368 -4.498237467551549 4.971372272880071 -15.204499850241962 90.59792881738328 26.165417589666454 -146.1928572469929 -4.22047377204159 44.37215266327505 -5.647413288886067 12.412474300273123 98.62604230157953 -6.8098912552093935 34.6138191118455 -4.347100899235226 2.540333355845293 -89.40428720376369 88.97090000000532 89.09407993975998 -0.06048475415417843 5.292095086480223e-07 3.0243442105675257e-07 -0.06392501299070201 -9.567049473341136e-06 3.8567693997631094e-07 -89.39438942376576 88.98099955344097 89.08408849201255 -1.1574200330415738 3.669708606090605e-06 -1.6834749894577587e-06 2.5759999810673904 -6.461799312690939e-06 8.272707197026995e-07 -88.8571895690079 89.35790000000966 88.54699258536705 -1.1457800944417962 -9.951067803571416e-06 3.426556434752147e-06 1.14577019152444 9.888418288948503e-06 -1.0712237680053872e-06 -89.42206970292139 88.94869999998832 89.11187315073335 0.4092888000979393 1.1336095886133344e-05 0.0007492555991719006 -0.6365990871605961 -4.154867296231585e-06 -9.294806754636452e-07 104.36400019215726 40.50229295496368 -88.82459759346852 -7.669031975774377 0.18616653939182642 -1.35044092340006 -11.263400000001763 -2.974669057022877e-06 6.619283186638546e-05 -125.83023402910908 -16.71651544829783 62.140766489312924 -45.43168564428633 -31.171139452964482 -89.03970494405057 -19.08232504259203 -19.764643261425356 26.07289113050099 72.58871968192382 15.84957499258732 19.659715708707395 -91.18749417240129 -87.8289000000056 -89.99899536507233 3.408879961786664 4.354116396664798e-06 0.003260671276959679 -0.9548648982030973 -5.598959746996025e-06 4.162271001285202e-06 -91.18777247861713 -89.40149999999224 -89.99925695883664 2.8563707404128342 6.810410520206677e-06 0.0028745579447513594 -3.168440075684586 3.785211997488683e-06 2.1751359237394038e-07 88.80681414270921 -89.71700768972669 89.99542458817935 2.544810089992704 -1.1790695895464494e-05 0.003004419944600116 -2.544819691208949 7.405342401581714e-06 1.2939093470861015e-06 -91.1881921265638 -86.19730000000837 -89.99969086166308 6.131040162411616 -9.855790180481705e-06 0.0068413000356430395 -2.045431154653859 -6.0976915143610245e-06 -4.664051732351007e-08 -101.94900000000177 -40.72420000000386 -90.069400000011 10.01720000000016 2.707720306271169e-05 5.385731133762299e-06 -2.6697593965533684 -5.423231319416294e-06 -4.652182882173537e-06 -56.00532060982941 -2.9617262949643957 76.28490661306665 7.983053513105997 1.2630469563474522 -36.566404177638475
